<svg id="visual" viewBox="0 0 900 600" width="900" height="600" xmlns="http://www.w3.org/2000/svg" xmlns:xlink="http://www.w3.org/1999/xlink" version="1.1"><g stroke-width="1" stroke-linejoin="bevel"><path d="M462 269L497 217L428 165Z" fill="#435a81" stroke="#435a81"></path><path d="M428 165L373 263L462 269Z" fill="#6f8baa" stroke="#6f8baa"></path><path d="M428 165L370 134L373 263Z" fill="#1f2c58" stroke="#1f2c58"></path><path d="M370 134L308 223L373 263Z" fill="#435a81" stroke="#435a81"></path><path d="M497 217L534 115L428 165Z" fill="#0a0f3c" stroke="#0a0f3c"></path><path d="M428 165L469 0L370 134Z" fill="#0a0f3c" stroke="#0a0f3c"></path><path d="M365 0L324 113L370 134Z" fill="#5f7a9d" stroke="#5f7a9d"></path><path d="M370 134L324 113L308 223Z" fill="#5f7a9d" stroke="#5f7a9d"></path><path d="M408 416L492 372L462 269Z" fill="#2a3b66" stroke="#2a3b66"></path><path d="M462 269L613 261L497 217Z" fill="#1f2c58" stroke="#1f2c58"></path><path d="M497 217L612 167L534 115Z" fill="#1f2c58" stroke="#1f2c58"></path><path d="M408 416L462 269L373 263Z" fill="#5f7a9d" stroke="#5f7a9d"></path><path d="M233 211L293 288L308 223Z" fill="#90adc6" stroke="#90adc6"></path><path d="M308 223L293 288L373 263Z" fill="#7f9cb8" stroke="#7f9cb8"></path><path d="M492 372L613 261L462 269Z" fill="#5f7a9d" stroke="#5f7a9d"></path><path d="M613 261L612 167L497 217Z" fill="#516a8f" stroke="#516a8f"></path><path d="M316 421L408 416L373 263Z" fill="#0a0f3c" stroke="#0a0f3c"></path><path d="M324 113L233 211L308 223Z" fill="#90adc6" stroke="#90adc6"></path><path d="M638 0L469 0L534 115Z" fill="#2a3b66" stroke="#2a3b66"></path><path d="M534 115L469 0L428 165Z" fill="#1f2c58" stroke="#1f2c58"></path><path d="M684 179L630 103L612 167Z" fill="#141d4a" stroke="#141d4a"></path><path d="M612 167L630 103L534 115Z" fill="#435a81" stroke="#435a81"></path><path d="M233 211L228 295L293 288Z" fill="#5f7a9d" stroke="#5f7a9d"></path><path d="M293 288L316 421L373 263Z" fill="#435a81" stroke="#435a81"></path><path d="M469 0L365 0L370 134Z" fill="#435a81" stroke="#435a81"></path><path d="M324 113L201 95L233 211Z" fill="#516a8f" stroke="#516a8f"></path><path d="M228 295L316 421L293 288Z" fill="#141d4a" stroke="#141d4a"></path><path d="M613 261L684 179L612 167Z" fill="#2a3b66" stroke="#2a3b66"></path><path d="M365 0L291 0L324 113Z" fill="#141d4a" stroke="#141d4a"></path><path d="M700 376L704 263L613 261Z" fill="#5f7a9d" stroke="#5f7a9d"></path><path d="M613 261L704 263L684 179Z" fill="#364a73" stroke="#364a73"></path><path d="M632 408L613 261L492 372Z" fill="#516a8f" stroke="#516a8f"></path><path d="M529 485L492 372L408 416Z" fill="#516a8f" stroke="#516a8f"></path><path d="M529 485L632 408L492 372Z" fill="#6f8baa" stroke="#6f8baa"></path><path d="M316 421L375 480L408 416Z" fill="#2a3b66" stroke="#2a3b66"></path><path d="M291 0L201 95L324 113Z" fill="#0a0f3c" stroke="#0a0f3c"></path><path d="M233 211L123 260L228 295Z" fill="#2a3b66" stroke="#2a3b66"></path><path d="M375 480L529 485L408 416Z" fill="#435a81" stroke="#435a81"></path><path d="M696 0L638 0L630 103Z" fill="#141d4a" stroke="#141d4a"></path><path d="M630 103L638 0L534 115Z" fill="#2a3b66" stroke="#2a3b66"></path><path d="M666 519L700 376L632 408Z" fill="#0a0f3c" stroke="#0a0f3c"></path><path d="M632 408L700 376L613 261Z" fill="#141d4a" stroke="#141d4a"></path><path d="M684 179L739 132L630 103Z" fill="#435a81" stroke="#435a81"></path><path d="M781 213L739 132L684 179Z" fill="#6f8baa" stroke="#6f8baa"></path><path d="M781 213L684 179L704 263Z" fill="#2a3b66" stroke="#2a3b66"></path><path d="M291 0L223 0L201 95Z" fill="#516a8f" stroke="#516a8f"></path><path d="M111 205L123 260L233 211Z" fill="#90adc6" stroke="#90adc6"></path><path d="M167 415L231 478L316 421Z" fill="#6f8baa" stroke="#6f8baa"></path><path d="M316 421L288 518L375 480Z" fill="#90adc6" stroke="#90adc6"></path><path d="M111 205L233 211L116 118Z" fill="#0a0f3c" stroke="#0a0f3c"></path><path d="M116 118L233 211L201 95Z" fill="#7f9cb8" stroke="#7f9cb8"></path><path d="M739 132L696 0L630 103Z" fill="#90adc6" stroke="#90adc6"></path><path d="M167 415L316 421L228 295Z" fill="#90adc6" stroke="#90adc6"></path><path d="M375 480L405 600L529 485Z" fill="#0a0f3c" stroke="#0a0f3c"></path><path d="M231 478L288 518L316 421Z" fill="#5f7a9d" stroke="#5f7a9d"></path><path d="M123 260L167 415L228 295Z" fill="#364a73" stroke="#364a73"></path><path d="M834 289L781 213L704 263Z" fill="#141d4a" stroke="#141d4a"></path><path d="M739 132L780 114L696 0Z" fill="#90adc6" stroke="#90adc6"></path><path d="M75 0L116 118L201 95Z" fill="#364a73" stroke="#364a73"></path><path d="M781 213L780 114L739 132Z" fill="#141d4a" stroke="#141d4a"></path><path d="M529 485L630 519L632 408Z" fill="#516a8f" stroke="#516a8f"></path><path d="M700 376L834 289L704 263Z" fill="#2a3b66" stroke="#2a3b66"></path><path d="M610 600L630 519L529 485Z" fill="#516a8f" stroke="#516a8f"></path><path d="M630 519L666 519L632 408Z" fill="#516a8f" stroke="#516a8f"></path><path d="M332 600L405 600L375 480Z" fill="#435a81" stroke="#435a81"></path><path d="M630 519L679 600L666 519Z" fill="#1f2c58" stroke="#1f2c58"></path><path d="M405 600L500 600L529 485Z" fill="#90adc6" stroke="#90adc6"></path><path d="M183 600L332 600L288 518Z" fill="#516a8f" stroke="#516a8f"></path><path d="M288 518L332 600L375 480Z" fill="#435a81" stroke="#435a81"></path><path d="M183 600L288 518L231 478Z" fill="#2a3b66" stroke="#2a3b66"></path><path d="M807 409L834 289L700 376Z" fill="#7f9cb8" stroke="#7f9cb8"></path><path d="M781 213L900 112L780 114Z" fill="#364a73" stroke="#364a73"></path><path d="M123 260L61 370L167 415Z" fill="#90adc6" stroke="#90adc6"></path><path d="M127 600L183 600L231 478Z" fill="#7f9cb8" stroke="#7f9cb8"></path><path d="M0 304L61 370L123 260Z" fill="#2a3b66" stroke="#2a3b66"></path><path d="M0 234L123 260L111 205Z" fill="#6f8baa" stroke="#6f8baa"></path><path d="M805 485L807 409L700 376Z" fill="#2a3b66" stroke="#2a3b66"></path><path d="M500 600L610 600L529 485Z" fill="#2a3b66" stroke="#2a3b66"></path><path d="M666 519L805 485L700 376Z" fill="#90adc6" stroke="#90adc6"></path><path d="M223 0L75 0L201 95Z" fill="#516a8f" stroke="#516a8f"></path><path d="M0 129L0 234L111 205Z" fill="#90adc6" stroke="#90adc6"></path><path d="M900 112L811 0L780 114Z" fill="#364a73" stroke="#364a73"></path><path d="M780 114L811 0L696 0Z" fill="#90adc6" stroke="#90adc6"></path><path d="M0 129L111 205L116 118Z" fill="#516a8f" stroke="#516a8f"></path><path d="M610 600L679 600L630 519Z" fill="#5f7a9d" stroke="#5f7a9d"></path><path d="M679 600L805 485L666 519Z" fill="#6f8baa" stroke="#6f8baa"></path><path d="M900 329L900 239L834 289Z" fill="#516a8f" stroke="#516a8f"></path><path d="M0 234L0 304L123 260Z" fill="#0a0f3c" stroke="#0a0f3c"></path><path d="M75 0L0 129L116 118Z" fill="#5f7a9d" stroke="#5f7a9d"></path><path d="M900 329L834 289L807 409Z" fill="#5f7a9d" stroke="#5f7a9d"></path><path d="M834 289L900 239L781 213Z" fill="#141d4a" stroke="#141d4a"></path><path d="M70 538L231 478L167 415Z" fill="#90adc6" stroke="#90adc6"></path><path d="M70 538L167 415L61 370Z" fill="#5f7a9d" stroke="#5f7a9d"></path><path d="M900 239L900 112L781 213Z" fill="#435a81" stroke="#435a81"></path><path d="M900 426L900 329L807 409Z" fill="#1f2c58" stroke="#1f2c58"></path><path d="M0 304L0 402L61 370Z" fill="#141d4a" stroke="#141d4a"></path><path d="M0 502L70 538L61 370Z" fill="#5f7a9d" stroke="#5f7a9d"></path><path d="M75 0L0 0L0 129Z" fill="#6f8baa" stroke="#6f8baa"></path><path d="M70 538L127 600L231 478Z" fill="#364a73" stroke="#364a73"></path><path d="M900 530L900 426L805 485Z" fill="#2a3b66" stroke="#2a3b66"></path><path d="M805 485L900 426L807 409Z" fill="#90adc6" stroke="#90adc6"></path><path d="M900 112L900 0L811 0Z" fill="#435a81" stroke="#435a81"></path><path d="M0 402L0 502L61 370Z" fill="#141d4a" stroke="#141d4a"></path><path d="M70 538L0 600L127 600Z" fill="#1f2c58" stroke="#1f2c58"></path><path d="M679 600L835 600L805 485Z" fill="#364a73" stroke="#364a73"></path><path d="M835 600L900 530L805 485Z" fill="#5f7a9d" stroke="#5f7a9d"></path><path d="M0 502L0 600L70 538Z" fill="#7f9cb8" stroke="#7f9cb8"></path><path d="M835 600L900 600L900 530Z" fill="#2a3b66" stroke="#2a3b66"></path></g></svg>