<svg id="visual" viewBox="0 0 1500 700" width="1500" height="700" xmlns="http://www.w3.org/2000/svg" xmlns:xlink="http://www.w3.org/1999/xlink" version="1.1"><path d="M0 148L136 78L273 127L409 99L545 141L682 162L818 120L955 78L1091 78L1227 92L1364 64L1500 57L1500 0L1364 0L1227 0L1091 0L955 0L818 0L682 0L545 0L409 0L273 0L136 0L0 0Z" fill="#90adc6"></path><path d="M0 274L136 295L273 281L409 295L545 260L682 358L818 260L955 239L1091 302L1227 204L1364 295L1500 204L1500 55L1364 62L1227 90L1091 76L955 76L818 118L682 160L545 139L409 97L273 125L136 76L0 146Z" fill="#768fa9"></path><path d="M0 302L136 337L273 316L409 323L545 337L682 421L818 309L955 267L1091 344L1227 239L1364 330L1500 232L1500 202L1364 293L1227 202L1091 300L955 237L818 258L682 356L545 258L409 293L273 279L136 293L0 272Z" fill="#5d738d"></path><path d="M0 372L136 379L273 400L409 365L545 414L682 456L818 428L955 330L1091 393L1227 337L1364 407L1500 295L1500 230L1364 328L1227 237L1091 342L955 265L818 307L682 419L545 335L409 321L273 314L136 335L0 300Z" fill="#455772"></path><path d="M0 449L136 421L273 456L409 428L545 477L682 519L818 470L955 421L1091 449L1227 414L1364 442L1500 365L1500 293L1364 405L1227 335L1091 391L955 328L818 426L682 454L545 412L409 363L273 398L136 377L0 370Z" fill="#2e3d58"></path><path d="M0 652L136 666L273 624L409 603L545 652L682 610L818 645L955 624L1091 617L1227 659L1364 631L1500 652L1500 363L1364 440L1227 412L1091 447L955 419L818 468L682 517L545 475L409 426L273 454L136 419L0 447Z" fill="#19243e"></path><path d="M0 701L136 701L273 701L409 701L545 701L682 701L818 701L955 701L1091 701L1227 701L1364 701L1500 701L1500 650L1364 629L1227 657L1091 615L955 622L818 643L682 608L545 650L409 601L273 622L136 664L0 650Z" fill="#050a26"></path></svg>